# xmcd
#
# Track frame offsets:
#	183
#	16808
#	36218
#
# Disc length: 733 seconds
#
# Revision: 0
# Processed by: cddbd v1.5.1PL0 Copyright (c) Steve Scherf et al.
# Submitted via: audiograbber 1.83.01
#
DISCID=1802db03
DTITLE=Sidney Youngblood - no big deal
DYEAR=2003
DGENRE=Rock
TTITLE0=no big deal
TTITLE1=Marvin´s Brother
TTITLE2=no big deal(No theme)
EXTD=YEAR: 2003
EXTT0=
EXTT1=
EXTT2=
PLAYORDER=
